<svg xmlns="http://www.w3.org/2000/svg" width="385.35" height="70.42" style=""><rect id="backgroundrect" width="100%" height="100%" x="0" y="0" fill="none" stroke="none"/><defs><style>.cls-1{fill:#231f20;}.cls-2{fill:#ec4543;}.cls-3{fill:#fff;}</style></defs><title>horizontal with pin i</title><g class="currentLayer" style=""><title>Layer 1</title><g id="Layer_2" data-name="Layer 2" class="" transform=""><g id="finals_" data-name="finals?" transform=""><g id="horizontal_with_pin_i" data-name="horizontal with pin i" transform=""><path class="cls-1" d="M 0.544335 0.16 h 18 q 7.19 0 10.15 4.91 A 9.83 9.83 0 0 1 30.0643 10 V 30.76 q 0 6.75 -8.21 9.55 H 9.28433 V 69.83 a 0.48 0.48 0 0 1 -0.54 0.54 H 0.544335 A 0.48 0.48 0 0 1 0.00433476 69.83 V 0.7 Q 0.114335 0.16 0.544335 0.16 Z M 9.28433 9.44 V 31.3 h 8.47 c 2 -0.29 3 -1.28 3 -3 V 12.2 C 20.4243 10.36 19.5043 9.44 18.0043 9.44 Z" id="svg_1" transform=""/><path class="cls-1" d="M 40.7443 27.13 H 49.0043 c 0.36 0.05 0.54 0.16 0.54 0.34 V 70 c 0 0.23 -0.18 0.34 -0.54 0.34 H 40.7443 c -0.36 0 -0.54 -0.11 -0.54 -0.34 V 27.47 A 0.5 0.5 0 0 1 40.7443 27.13 Z" id="svg_2" transform=""/><path class="cls-1" d="M 62.2243 0.27 h 9 q 0.54 0 10.9 37.4 h 0.27 V 0.81 q 0.1 -0.54 0.54 -0.54 h 8.2 q 0.54 0.1 0.54 0.54 v 69 c 0 0.39 -0.18 0.59 -0.54 0.59 H 82.4043 q -1 -0.65 -6 -19.7 q -0.27 0 -5.18 -18 H 71.0043 V 69.83 c 0 0.39 -0.18 0.59 -0.54 0.59 h -8.2 c -0.36 0 -0.54 -0.2 -0.54 -0.59 V 0.81 Q 61.7943 0.27 62.2243 0.27 Z" id="svg_3" transform=""/><path class="cls-1" d="M 124.774 0.16 h 18 q 7.19 0 10.15 4.91 A 9.83 9.83 0 0 1 154.294 10 V 30.76 q 0 6.75 -8.2 9.55 H 133.514 V 69.83 a 0.48 0.48 0 0 1 -0.54 0.54 h -8.2 a 0.48 0.48 0 0 1 -0.54 -0.54 V 0.7 Q 124.344 0.16 124.774 0.16 Z m 8.74 9.28 V 31.3 H 142.004 c 2 -0.29 3 -1.28 3 -3 V 12.2 q -0.54 -2.76 -2.76 -2.76 Z" id="svg_4" transform=""/><path class="cls-1" d="M 175.504 0.16 h 7.66 q 1.13 1.14 5.23 21.64 q 1.08 3.72 11 48.3 l -0.54 0.27 h -8.53 q -0.81 0 -3.29 -13.17 H 171.664 q -2.47 11.49 -3.29 13.17 h -8.79 L 159.004 70.1 L 175.004 0.43 Z m 3.56 23.58 l -5.24 24.39 h 11 l -5.5 -24.39 Z" id="svg_5" transform=""/><path class="cls-1" d="M 205.664 0 h 18.08 q 8.41 0 10.95 6.85 a 12.24 12.24 0 0 1 0.54 3.29 V 30.38 q 0 7 -7.66 9.61 l -1.08 0.27 q 0.54 1.89 11.22 29.84 l -0.54 0.27 h -9.06 q -1.29 -1.78 -8.74 -22.45 q -3 -7.66 -3.29 -7.66 h -1.62 V 69.83 q 0 0.54 -0.6 0.54 h -8.2 a 0.48 0.48 0 0 1 -0.54 -0.54 V 0.54 Q 205.234 0 205.664 0 Z m 8.8 9.34 V 31.19 h 7.93 q 3.56 0 3.56 -3.56 V 12.57 c -0.18 -2.16 -1.1 -3.23 -2.75 -3.23 Z" id="svg_6" transform=""/><path class="cls-1" d="M 249.804 0.16 h 8.47 q 0.54 0.11 0.54 0.54 V 31.57 h 0.27 q 11 -29.52 12 -31.41 h 9 q 0.54 0 0.54 0.81 q -12 31 -12 32.27 q 11.7 30.33 13.92 37.13 h -9.28 q -0.91 0 -9.61 -24.29 h -0.27 q -4.63 12.09 -4.64 13.12 V 69.83 a 0.48 0.48 0 0 1 -0.54 0.54 H 249.804 a 0.48 0.48 0 0 1 -0.54 -0.54 V 0.7 Q 249.374 0.16 249.804 0.16 Z" id="svg_7" transform=""/><path class="cls-1" d="M 290.764 27 H 299.004 q 0.54 0.06 0.54 0.33 V 70 c 0 0.23 -0.18 0.34 -0.54 0.34 h -8.25 c -0.36 0 -0.54 -0.11 -0.54 -0.34 V 27.29 A 0.5 0.5 0 0 1 290.764 27 Z" id="svg_8" transform=""/><path class="cls-1" d="M 312.244 0.27 h 9 q 0.54 0 10.9 37.4 h 0.27 V 0.81 q 0.1 -0.54 0.54 -0.54 h 8.2 q 0.54 0.1 0.54 0.54 v 69 c 0 0.39 -0.18 0.59 -0.54 0.59 h -8.74 q -1 -0.65 -6 -19.7 q -0.27 0 -5.18 -18 H 321.004 V 69.83 c 0 0.39 -0.18 0.59 -0.54 0.59 h -8.2 c -0.36 0 -0.54 -0.2 -0.54 -0.59 V 0.81 Q 311.804 0.27 312.244 0.27 Z" id="svg_9" transform=""/><path class="cls-1" d="M 375.534 0.43 q 9.83 1.62 9.82 9.55 V 20.13 a 0.48 0.48 0 0 1 -0.54 0.54 h -8.2 a 0.48 0.48 0 0 1 -0.54 -0.54 V 12.47 c 0 -2 -1.18 -3 -3.56 -3 h -4.37 q -3.56 0 -3.56 3.56 V 57.79 c 0 2.38 1 3.56 3 3.56 h 5.72 c 1.84 -0.35 2.75 -1.25 2.75 -2.69 v -20 h -6 a 0.48 0.48 0 0 1 -0.54 -0.54 V 30.22 q 0.11 -0.54 0.54 -0.54 h 14.78 q 0.54 0.06 0.54 0.54 V 60.81 q 0 7.51 -8.74 9.56 H 364.004 q -5.57 0 -8.47 -7.61 a 9.1 9.1 0 0 1 -0.27 -2.21 V 10.79 Q 355.304 3 363.504 0.43 Z" id="svg_10" transform=""/><circle class="cls-2" style="fill:#ec4543;" cx="44.8743" cy="7.41" r="7.14" id="svg_11" transform=""/><circle class="cls-3" style="fill:#ffffff;" cx="44.8743" cy="7.41" r="3.13" id="svg_12" transform=""/><path style="fill:#ec4543;" class="cls-2" d="M 50.8843 11.27 l -5.7 8.14 a 0.44 0.44 0 0 1 -0.72 0 l -5.6 -8.14 Z" id="svg_13" transform=""/><circle class="cls-2" style="fill:#ec4543;" cx="294.894" cy="7.57" r="7.14" id="svg_14" transform=""/><circle class="cls-3" style="fill:#ffffff;" cx="294.894" cy="7.57" r="3.13" id="svg_15" transform=""/><path style="fill:#ec4543;" class="cls-2" d="M 300.904 11.43 l -5.7 8.14 a 0.44 0.44 0 0 1 -0.72 0 l -5.6 -8.14 Z" id="svg_16" transform=""/></g></g></g></g></svg>